<svg xmlns="http://www.w3.org/2000/svg" xmlns:xlink="http://www.w3.org/1999/xlink" xmlns:serif="http://www.serif.com/" version="1.1" xml:space="preserve" style="fill-rule:evenodd;clip-rule:evenodd;stroke-linejoin:round;stroke-miterlimit:2;" viewBox="434.41 910.53 2440.42 752.5"><g id="Lazy-Cook" serif:id="Lazy Cook"><g id="Lazy"><path id="L" d="M434.47,1175.43c-2.818,-189.766 98.616,-280.174 160.19,-146.049c55.03,119.872 11.783,205.849 26.446,214.701c14.663,8.851 113.499,-42.19 189.271,35.563c75.772,77.752 42.278,125.835 17.996,148.927c-26.866,25.549 -273.481,22.94 -316.151,-9.319c-39.27,-29.688 -76.877,-184.882 -77.752,-243.823Z"/><path id="Z" d="M1220.05,1257.68c-0,-0 55.374,-18.137 78.505,-9.484c15.563,3.503 45.115,33.591 30.152,55.712c-42.105,55.838 -164.083,78.628 -200.315,45.611c-12.511,-11.401 -39.497,-41.648 -12.705,-85.776c43.974,-72.427 62.589,-112.669 62.688,-113.99c0.099,-1.322 -66.268,1.625 -91.118,-1.056c-59.573,-6.429 -51.288,-97.362 6.775,-108.739c34.693,-6.799 104.237,-3.039 139.195,2.147c46.881,6.955 84.281,26.184 68.561,83.356c-7.699,27.999 -26.304,50.744 -34.843,63.059c-6.774,9.768 -38.703,51.14 -46.895,69.16Z"/><path id="A" d="M698.106,1174.51c-13.398,-65.945 107.586,-232.534 145.382,-253.367c51.578,-28.428 116.068,6.044 132.28,35.591c17.923,32.667 100.01,352.577 56.341,415.008c-20.519,29.334 -56.898,18.204 -79.919,6.448c-12.766,-6.519 -50.305,-46.53 -58.846,-96.278c-10.903,-63.503 4.55,-140.192 -2.651,-135.932c-40.027,23.681 -74.15,-6.106 -81.171,-8.35c-9.053,-2.894 -24.24,26.027 -29.717,38.99c-17.456,41.317 -71.145,49.834 -81.699,-2.11Zm173.831,-101.63c7.78,-11.639 3.486,-54.044 -10.798,-48.764c-11.197,4.14 -23.573,17.14 -24.424,37.765c-0.874,21.183 28.615,20.884 35.222,10.999Z"/><path d="M1464.01,1182.26c-10.671,-2.708 34.134,-129.38 77.448,-139.275c47.766,-10.913 80.788,26.718 55.175,88.741c-5.667,13.722 -81.471,145.739 -81.471,145.739c0,0 -94.873,176.196 -103.938,185.634c-7.5,7.807 -20.481,19.263 -46.368,17.462c-24.932,-1.735 -44.676,-21.141 -46.944,-37.48c-9.363,-67.457 97.345,-172.615 97.345,-172.615c0,-0 -43.121,-54.008 -57.411,-97.979c-5.439,-16.736 -41.75,-117.551 -2.059,-143.138c32.401,-20.888 56.727,-6.611 84.214,53.374c11.34,24.745 24.009,99.537 24.009,99.537Z" style="fill-rule:nonzero;"/></g><g id="Cook"><path id="C" d="M1651.53,1197.14c-2.004,-51.645 3.677,-98.314 38.447,-142.766c23.252,-29.727 58.109,-64.643 117.572,-76.524c44.396,-11.453 93.067,-3.377 116.455,51.345c15.58,36.452 -39.63,92.874 -74.393,110.342c-131.23,65.942 39.954,243.199 137.561,46.293c18.26,-36.836 46.269,-7.325 48.427,14.578c0.668,6.779 12.664,117.014 -140.862,172.885c-104.807,38.141 -236.781,-10.497 -243.207,-176.153Z"/><g id="Egg"><path id="O-EGG" d="M2059.43,1328.88c43.173,-71.945 18.587,-284.38 223.056,-268.098c30.392,2.42 49.865,-10.666 73.966,-36.813c34.863,-37.822 150.148,-45.993 149.739,60.216c-0.41,106.209 8.819,497.394 -228.494,484.039c-68.909,-3.877 -100.846,33.673 -110.556,50.379c-24.347,41.89 -200.517,43.969 -235.029,-27.997c-34.512,-71.967 8.294,-160.158 39.191,-179.458c38.572,-24.093 70.611,-53.078 88.127,-82.268Z" style="fill:none;stroke:#000;stroke-width:30.35px;stroke-linecap:round;stroke-miterlimit:1.5;"/><path id="O" d="M2254.08,1194.93c-0,-0 106.797,-44.422 131.312,59.243c24.514,103.666 -44.95,122.385 -65.019,134.295c-30.652,18.191 -132.862,37.397 -143.14,-37.284c-10.278,-74.681 -18.314,-126.133 76.847,-156.254Z" style="stroke:#000;stroke-width:30.35px;stroke-linecap:round;stroke-miterlimit:1.5;"/></g><path id="O1" serif:id="O" d="M1998.34,1081.24c0,0 -15.921,-98.808 76.25,-98.606c92.172,0.203 93.965,62.427 99.956,81.711c9.149,29.452 4.771,119.332 -60.146,112.973c-64.918,-6.36 -109.834,-9.936 -116.06,-96.078Z"/><path id="K" d="M2557.04,1057.32c0.041,-6.108 -10.927,-35.462 33.205,-54.382c44.133,-18.92 46.433,-14.311 55.64,-7.393c9.207,6.917 7.73,75.837 6.293,98.692c-1.437,22.854 102.845,-72.1 110.556,-78.782c15.115,-13.098 47.74,-12.151 57.641,12.131c9.901,24.281 22.269,63.27 -0.773,74.767c-23.043,11.497 -76.6,48.384 -62.775,64.083c34.169,38.802 135.778,127.869 115.313,239.108c-3.435,18.673 -43.827,46.482 -82.777,38.34c-21.83,-4.564 -56.273,-71.939 -80.301,-146.863c-17.819,-55.565 -50.079,-79.623 -50.079,-79.623c0,0 2.528,151.026 -4.442,176.264c-4.871,17.636 -39.079,43.128 -66.353,31.057c-27.275,-12.071 -66.673,-24.436 -44.641,-96.528c22.031,-72.091 13.324,-245.708 13.493,-270.871Z"/></g></g></svg>